# xmcd
#
# Track frame offsets:
#	150
#	12692
#	24004
#	36392
#	53979
#	69644
#	83334
#	96802
#	108994
#	121702
#	136162
#	148747
#
# Disc length: 2191 seconds
#
# Revision: 0
# Processed by: cddbd v1.5.1PL0 Copyright (c) Steve Scherf et al.
# Submitted via: dBpowerAMP V4.0
#
DISCID=98088d0c
DTITLE=Chuy Vega - Hoy te vuelvo a encontrar
DYEAR=1900
DGENRE=
TTITLE0=Leyendas
TTITLE1=Cantan las aves
TTITLE2=No te engañes
TTITLE3=El Dorado
TTITLE4=Celos de Maria
TTITLE5=Aunque tu no me quieras
TTITLE6=Hoy te vuelvo a encontrar
TTITLE7=Asi es mi corazon
TTITLE8=Queriendote asi
TTITLE9=Los traileros
TTITLE10=Hermoso fue el ayer
TTITLE11=Caballo adicto
EXTD=
EXTT0=
EXTT1=
EXTT2=
EXTT3=
EXTT4=
EXTT5=
EXTT6=
EXTT7=
EXTT8=
EXTT9=
EXTT10=
EXTT11=
PLAYORDER=
